<svg height="512" viewBox="0 0 52 60" width="512" xmlns="http://www.w3.org/2000/svg"><g id="Page-1" fill="none" fill-rule="evenodd"><g id="012---Fluer-De-Lis" fill="rgb(0,0,0)" fill-rule="nonzero"><path id="Shape" d="m9 21c-4.636 0-7.66 2.589-8.089 6.926-.48 4.86 2.643 11.006 7.893 12.054 5.463 1.1 7.806-1.175 7.9-1.273.1808474-.1989199.2825869-.4571817.286-.726-.0284285-.2896013-.1588569-.559673-.368-.762-.864-.691-2.632-2.488-2.583-3.632.0254902-.3246648.2205432-.6117311.513-.755.4295011-.2839852.9717804-.33679 1.448-.141 1.672.555 3.529 2.91 4.456 4.752-.8584834.5118572-1.4026911 1.4204772-1.4487788 2.4189096-.0460877.9984325.4121003 1.9533231 1.2197788 2.5420904-.6576388.4358466-1.4395744.6451118-2.227.596-.1462669-.0122087-.2881701-.0558712-.416-.128.0291149-.0629341.0710021-.1191242.123-.165.2708181-.2709731.3630224-.6728517.2374125-1.0347785s-.4469534-.6202799-.8274125-.6652215c-1.3029223-.118469-2.6006422.2761929-3.617 1.1-1.047975 1.0140645-1.5965978 2.4379237-1.5 3.893-.0391015 1.3698556.6233635 2.6649991 1.757 3.435 1.9 1.319 4.745 1.186 6.593.5.3439475-.1302901.6781338-.2850183 1-.463-.5893726 1.5460881-.694013 3.2349834-.3 4.842.8897234 2.2311305 2.4182626 4.1499793 4.394 5.516.3360369.2241995.7739631.2241995 1.11 0 1.9758914-1.3662873 3.5044453-3.2855026 4.394-5.517.3939492-1.6070223.28931-3.2958983-.3-4.842.3213808.1795058.6556306.334932 1 .465 1.845.684 4.694.817 6.59-.5 1.135842-.7690363 1.8003365-2.0648384 1.762-3.436.0962978-1.4547359-.4523011-2.8781672-1.5-3.892-1.0162566-.8239977-2.3140557-1.2186836-3.617-1.1-.3804591.0449416-.7018026.3032947-.8274125.6652215s-.0334056.7638054.2374125 1.0347785c.071.071.11.126.12.121-.1089051.1104643-.2578828.1721475-.413.171-.78653.0470519-1.566959-.1635902-2.223-.6.8076785-.5887673 1.2658665-1.5436579 1.2197788-2.5420904-.0460877-.9984324-.5902954-1.9070524-1.4487788-2.4189096.927-1.842 2.784-4.2 4.456-4.752.4740682-.1943727 1.013601-.1415801 1.441.141.2921661.1430905.4871689.4297028.513.754.046 1.039-1.483 2.75-2.584 3.634-.2141015.1826639-.3439522.4451183-.3592598.7261365-.0153077.2810182.0852664.5560243.2782598.7608635.08.08 1.621 1.57 5.08 1.57.9485821-.0068116 1.8941723-.1072994 2.823-.3 5.25-1.048 8.373-7.194 7.893-12.054-.429-4.33-3.453-6.919-8.089-6.919-4.6199317.0162758-8.9858081 2.1165408-11.882 5.716.7906277-1.6173103 1.7770212-3.1313251 2.937-4.508 1.58-1.993 2.945-3.714 2.945-7.208 0-7.507-10-14.527-10.43-14.822-.34342-.23580002-.79658-.23580002-1.14 0-.43.295-10.43 7.315-10.43 14.822 0 3.494 1.365 5.215 2.945 7.208 1.1599788 1.3766749 2.1463723 2.8906897 2.937 4.508-2.8961919-3.5994592-7.2620683-5.6997242-11.882-5.716zm21 18c.5522847 0 1 .4477153 1 1s-.4477153 1-1 1h-8c-.5522847 0-1-.4477153-1-1s.4477153-1 1-1zm6.269 4.582c.0561313-.1362625.0963962-.2785316.12-.424.2920086.096165.5614515.2506184.792.454.6008823.6428847.8988388 1.5116519.819 2.388.0359162.7142938-.3057703 1.3950092-.9 1.793-1.4644968.7915464-3.2052399.8904939-4.75.27-1.3618593-.6331911-2.5751678-1.5459834-3.561-2.679-.027-.033-.055-.064-.082-.091-.3853646-.3868666-1.0107861-.3899937-1.4-.007l-.03.03c-.3094587.3304794-.3582727.8276435-.119 1.212 1.01 1.75 2.539 5.212 1.894 7.152-.4408546 1.1891422-1.1419488 2.2647-2.052 3.148v-5.828c0-.5522847-.4477153-1-1-1s-1 .4477153-1 1v5.828c-.9091735-.8818737-1.6098984-1.9556807-2.051-3.143-.639-1.923.856-5.339 1.871-7.113.3056051-.4269924.228909-1.0176232-.1756155-1.3524021s-.9990781-.2996651-1.3613845.0804021c-.0196736.0193854-.0383637.0397443-.056.061-.9906496 1.1387042-2.2078988 2.0582825-3.574 2.7-1.5458368.6201686-3.28734.5212404-4.753-.27-.5935987-.3976172-.9351999-1.0774036-.9-1.791-.0798388-.8763481.2181177-1.7451153.819-2.388.2306942-.2031782.5000933-.3576065.792-.454.0236038.1454684.0638687.2877375.12.424.4126629.8768621 1.2999806 1.4313868 2.269 1.418 2.534 0 3.76-1.07 4.356-2h7.288c.6.93 1.822 2 4.356 2 .9690194.0133868 1.8563371-.5411379 2.269-1.418zm-11.3-9.829c-1.145-7.353-3.535-10.363-5.456-12.787-1.459-1.84-2.513-3.166-2.513-5.966 0-4.825 5.285-9.757 8-11.971v10.971c0 .5522847.4477153 1 1 1s1-.4477153 1-1v-10.973c2.715 2.212 8 7.139 8 11.973 0 2.8-1.054 4.126-2.513 5.966-1.922 2.425-4.313 5.44-5.457 12.8-.0187754.0766222-.0288391.1551195-.03.234.0032705.4890119.363104.9023743.847.973.4825733.0683532.946171-.2139096 1.107-.674.413-1.171 4.267-11.299 14.046-11.299 4.865 0 5.909 3.21 6.1 5.123.4 4-2.213 9.081-6.295 9.9-1.1429125.2469887-2.3173203.314464-3.481.2 2.1273373-.9282605 3.7886882-2.6776205 4.606-4.85 1.332-3.33.19-5.25-.609-6.1-1.4926968-1.4472222-3.6774784-1.9217028-5.636-1.224-.5246705.174522-.8085219.7413295-.634 1.266.174522.5246705.7413295.808522 1.266.634 1.220666-.4465661 2.5884103-.176718 3.548.7.827.877.9 2.254.207 3.982-.5569768 1.4746829-1.6155814 2.7060632-2.99 3.478.5512032-.7584192.8565961-1.6676175.875-2.605-.0486883-.9623892-.5736827-1.8372548-1.4-2.333-.9396026-.6248098-2.1208319-.7641057-3.18-.375-2.453.813-4.8 3.914-5.83 6.207h-7.09c-1.029-2.293-3.377-5.394-5.83-6.207-1.0590312-.3902645-2.2408001-.250905-3.18.375-.8263173.4957452-1.3513117 1.3706108-1.4 2.333.0183104.9375576.3240934 1.8468782.876 2.605-1.3751796-.7712842-2.4342949-2.0028466-2.991-3.478-.692-1.728-.62-3.105.207-3.982.9596956-.8765083 2.3273157-1.1463318 3.548-.7.3394023.1128959.7132522.0361471.9807241-.201336.2674719-.237483.3879305-.599621.3160001-.95-.0719305-.350379-.3253219-.6357681-.6647242-.748664-1.9585688-.6969669-4.1429549-.2225722-5.636 1.224-.8.847-1.941 2.767-.609 6.1.81660653 2.1708102 2.4754027 3.9197584 4.6 4.85-1.1633361.1150142-2.3375.0475335-3.48-.2-4.082-.816-6.69-5.9-6.295-9.9.192-1.913 1.236-5.123 6.101-5.123 9.787 0 13.64 10.146 14.05 11.312.1533776.4666414.6229583.752796 1.1079905.6751908.4850323-.0776051.8418868-.4959894.8420095-.9871908-.0004548-.0832744-.0108619-.166196-.031-.247z"/><path id="Shape" d="m26 26c.5522847 0 1-.4477153 1-1v-7c0-.5522847-.4477153-1-1-1s-1 .4477153-1 1v7c0 .5522847.4477153 1 1 1z"/></g></g></svg>